<svg width="256" height="256" viewBox="0 0 256 256" fill="none" xmlns="http://www.w3.org/2000/svg">
<rect width="256" height="256" rx="64" fill="#22211F"/>
<path d="M114.802 187.494C104.066 187.494 94.6032 185.613 86.4131 181.85C78.223 177.976 71.8037 172.442 67.1553 165.248C62.6175 157.943 60.3486 149.145 60.3486 138.852C60.3486 130.883 61.7321 123.689 64.499 117.27C67.3766 110.85 71.4163 105.427 76.6182 101C81.9307 96.4622 88.0732 93.0312 95.0459 90.707C102.129 88.2721 109.932 87.0547 118.454 87.0547C123.435 87.0547 128.47 87.6081 133.562 88.7148C138.763 89.7109 143.08 91.0391 146.511 92.6992L147.673 118.1L137.546 118.764L131.735 101.332C129.632 100.225 127.308 99.3952 124.763 98.8418C122.217 98.2884 119.616 98.0117 116.96 98.0117C110.541 98.0117 105.118 99.5059 100.69 102.494C96.2633 105.482 92.8877 109.743 90.5635 115.277C88.2393 120.811 87.0771 127.341 87.0771 134.867C87.0771 143.389 88.4606 150.749 91.2275 156.947C94.1051 163.145 97.9235 167.904 102.683 171.225C107.442 174.434 112.754 176.039 118.62 176.039C121.608 176.039 124.541 175.652 127.419 174.877C130.407 173.992 132.953 172.719 135.056 171.059L141.032 155.785L152.155 156.947L147.341 179.027C143.91 181.241 139.206 183.233 133.229 185.004C127.364 186.664 121.221 187.494 114.802 187.494ZM179.714 187.66C175.397 187.66 171.69 186.221 168.591 183.344C165.603 180.355 164.108 176.758 164.108 172.553C164.108 169.675 164.772 167.074 166.101 164.75C167.539 162.426 169.421 160.6 171.745 159.271C174.18 157.833 176.781 157.113 179.548 157.113C183.975 157.113 187.683 158.607 190.671 161.596C193.77 164.584 195.319 168.236 195.319 172.553C195.319 176.758 193.77 180.355 190.671 183.344C187.683 186.221 184.03 187.66 179.714 187.66Z" fill="#E8E4D9"/>
</svg>
