<svg width="256" height="256" viewBox="0 0 256 256" fill="none" xmlns="http://www.w3.org/2000/svg">
<rect width="256" height="256" rx="64" fill="#22211F"/>
<path d="M111.813 186L111.315 177.699L121.608 175.043C121.83 174.49 121.996 172.995 122.106 170.561C122.328 168.126 122.494 165.082 122.604 161.43C122.715 157.777 122.771 153.793 122.771 149.477V125.072C122.771 120.645 122.715 116.605 122.604 112.953C122.494 109.19 122.328 106.146 122.106 103.822C121.996 101.387 121.83 99.8932 121.608 99.3398L111.315 96.8496L111.813 88.5488H156.306L156.804 96.8496L146.345 99.3398C146.234 99.8932 146.068 101.443 145.847 103.988C145.625 106.534 145.459 109.688 145.349 113.451C145.238 117.214 145.183 121.088 145.183 125.072V149.477C145.183 153.35 145.238 157.169 145.349 160.932C145.459 164.584 145.625 167.738 145.847 170.395C146.068 172.94 146.234 174.49 146.345 175.043L156.804 177.699L156.306 186H111.813ZM52.3799 186L51.8818 177.699L62.3408 175.043C62.5622 174.49 62.7282 173.051 62.8389 170.727C63.0602 168.402 63.2262 165.414 63.3369 161.762C63.4476 157.999 63.5029 153.904 63.5029 149.477V125.072C63.5029 120.535 63.4476 116.384 63.3369 112.621C63.2262 108.858 63.0602 105.814 62.8389 103.49C62.7282 101.055 62.5622 99.6719 62.3408 99.3398L51.8818 96.8496L52.3799 88.5488H96.7061L97.2041 96.8496L86.9111 99.3398C86.6898 99.8932 86.4684 101.387 86.2471 103.822C86.1364 106.146 86.0257 109.19 85.915 112.953C85.915 116.605 85.915 120.645 85.915 125.072V149.477C85.915 153.793 85.915 157.777 85.915 161.43C86.0257 165.082 86.1364 168.126 86.2471 170.561C86.4684 172.995 86.6898 174.49 86.9111 175.043L97.2041 177.699L96.7061 186H52.3799ZM82.0967 142.504V129.887C84.7529 130.219 87.7965 130.44 91.2275 130.551C94.7692 130.661 99.141 130.717 104.343 130.717C109.545 130.717 113.861 130.661 117.292 130.551C120.723 130.44 123.767 130.219 126.423 129.887V142.504C124.099 142.393 121.221 142.283 117.79 142.172C114.359 141.951 109.877 141.84 104.343 141.84C98.8089 141.84 94.2712 141.951 90.7295 142.172C87.2985 142.283 84.4209 142.393 82.0967 142.504ZM186.354 187.66C182.038 187.66 178.33 186.221 175.231 183.344C172.243 180.355 170.749 176.758 170.749 172.553C170.749 169.675 171.413 167.074 172.741 164.75C174.18 162.426 176.062 160.6 178.386 159.271C180.821 157.833 183.422 157.113 186.188 157.113C190.616 157.113 194.323 158.607 197.312 161.596C200.41 164.584 201.96 168.236 201.96 172.553C201.96 176.758 200.41 180.355 197.312 183.344C194.323 186.221 190.671 187.66 186.354 187.66Z" fill="#E8E4D9"/>
</svg>
