<svg width="256" height="256" viewBox="0 0 256 256" fill="none" xmlns="http://www.w3.org/2000/svg">
<rect width="256" height="256" rx="64" fill="#22211F"/>
<path d="M141.281 187.162C138.514 186.83 135.471 186.609 132.15 186.498C128.83 186.387 125.676 186.277 122.688 186.166C119.699 186.055 117.264 186 115.383 186H65.0801L64.582 177.699L75.207 175.043C75.4284 174.49 75.5944 172.995 75.7051 170.561C75.8158 168.015 75.9264 164.916 76.0371 161.264C76.1478 157.501 76.2031 153.572 76.2031 149.477V125.072C76.2031 120.756 76.1478 116.771 76.0371 113.119C75.9264 109.467 75.8158 106.423 75.7051 103.988C75.5944 101.553 75.4284 100.059 75.207 99.5059L64.582 96.8496L65.0801 88.5488H113.059L113.557 97.1816L99.7773 99.6719C99.6667 100.004 99.5007 101.332 99.2793 103.656C99.0579 105.98 98.8919 109.024 98.7812 112.787C98.6706 116.439 98.6152 120.535 98.6152 125.072V149.477C98.6152 156.007 98.6706 161.208 98.7812 165.082C98.8919 168.956 99.0579 171.612 99.2793 173.051C101.161 173.383 103.098 173.604 105.09 173.715C107.193 173.826 109.683 173.881 112.561 173.881H118.703C121.138 173.881 123.296 173.77 125.178 173.549C127.059 173.327 128.609 173.106 129.826 172.885L139.123 154.789L149.416 157.445L141.281 187.162ZM173.82 187.66C169.504 187.66 165.796 186.221 162.697 183.344C159.709 180.355 158.215 176.758 158.215 172.553C158.215 169.675 158.879 167.074 160.207 164.75C161.646 162.426 163.527 160.6 165.852 159.271C168.286 157.833 170.887 157.113 173.654 157.113C178.081 157.113 181.789 158.607 184.777 161.596C187.876 164.584 189.426 168.236 189.426 172.553C189.426 176.758 187.876 180.355 184.777 183.344C181.789 186.221 178.137 187.66 173.82 187.66Z" fill="#E8E4D9"/>
</svg>
