<svg width="256" height="256" viewBox="0 0 256 256" fill="none" xmlns="http://www.w3.org/2000/svg">
<rect width="256" height="256" rx="64" fill="#22211F"/>
<path d="M109.323 119.428L80.9346 186.498H72.1357L34.7822 99.5059L26.3154 96.8496L26.8135 88.5488H68.4834L68.9814 96.8496L60.6807 99.5059L86.9111 164.086H78.9424L102.185 104.818L109.323 119.428ZM133.728 186.498L95.876 99.5059L87.5752 96.8496L88.0732 88.5488H131.071L131.569 96.8496L121.11 99.5059L147.839 164.086H140.866L165.104 99.5059L153.815 96.8496L154.313 88.5488H188.181L188.679 96.8496L180.212 99.5059L142.526 186.498H133.728ZM205.944 187.66C201.628 187.66 197.92 186.221 194.821 183.344C191.833 180.355 190.339 176.758 190.339 172.553C190.339 169.675 191.003 167.074 192.331 164.75C193.77 162.426 195.651 160.6 197.976 159.271C200.41 157.833 203.011 157.113 205.778 157.113C210.205 157.113 213.913 158.607 216.901 161.596C220 164.584 221.55 168.236 221.55 172.553C221.55 176.758 220 180.355 216.901 183.344C213.913 186.221 210.261 187.66 205.944 187.66Z" fill="#E8E4D9"/>
</svg>
